<?xml version="1.0" standalone="no"?>
<!DOCTYPE svg PUBLIC "-//W3C//DTD SVG 20010904//EN"
 "http://www.w3.org/TR/2001/REC-SVG-20010904/DTD/svg10.dtd">
<svg version="1.0" xmlns="http://www.w3.org/2000/svg"
 width="955.000000pt" height="360.000000pt" viewBox="0 0 955.000000 360.000000"
 preserveAspectRatio="xMidYMid meet">

<g transform="translate(0.000000,360.000000) scale(0.100000,-0.100000)"
fill="#000000" stroke="none">
<path d="M1574 3584 c-573 -69 -903 -278 -953 -601 -14 -93 -15 -994 -1 -1081
28 -169 134 -304 321 -406 139 -76 275 -116 559 -168 48 -8 959 -13 3555 -17
3285 -6 3496 -8 3595 -24 186 -32 375 -83 454 -124 28 -14 28 -16 12 -28 -25
-19 -194 -71 -304 -95 -241 -52 -18 -50 -4579 -50 l-4233 0 0 -35 0 -35 4248
0 c3759 0 4262 2 4372 15 148 19 327 57 425 92 165 59 326 162 390 250 16 23
33 42 38 42 4 1 7 -149 7 -331 0 -447 -10 -490 -139 -619 -159 -159 -448 -256
-855 -289 -86 -7 -1522 -10 -4307 -10 l-4179 0 0 -35 0 -35 4208 0 c2900 0
4243 3 4322 11 333 31 622 119 785 239 115 85 199 207 224 328 15 71 15 1036
0 1118 -46 257 -283 443 -684 537 -254 60 -35 57 -3713 57 -2195 0 -3407 4
-3482 10 -136 12 -275 34 -383 61 -95 24 -247 78 -247 89 0 12 151 68 257 95
259 65 -25 59 3295 62 l3008 3 0 35 0 35 -2964 0 c-2578 0 -2980 -2 -3083 -15
-217 -28 -377 -69 -521 -136 l-85 -39 -47 35 c-72 53 -128 120 -163 193 -30
64 -32 73 -32 187 0 115 1 123 32 188 84 177 309 314 628 382 247 53 84 50
3268 50 l2967 -1 0 38 0 38 -2952 -1 c-2412 -1 -2973 -4 -3064 -15z m-782
-1069 c144 -132 382 -222 733 -277 62 -9 862 -13 3575 -18 l3495 -6 115 -22
c311 -60 543 -164 655 -294 178 -208 137 -517 -89 -673 l-56 -38 -77 36 c-131
61 -276 101 -476 134 -94 16 -385 18 -3592 23 -3792 7 -3505 2 -3760 58 -271
60 -486 183 -571 327 -52 89 -54 111 -54 494 -1 196 -1 361 0 366 0 6 8 -4 18
-20 11 -17 48 -57 84 -90z"/>
<path d="M1898 1968 l-3 -143 -25 0 c-22 0 -25 -4 -25 -35 0 -31 3 -35 28 -38
l27 -3 0 -140 0 -139 320 0 320 0 0 139 0 140 28 3 c24 3 27 7 27 38 0 31 -3
35 -27 38 l-28 3 0 140 0 139 -320 0 -319 0 -3 -142z m572 -178 l0 -250 -250
0 -250 0 0 250 0 250 250 0 250 0 0 -250z"/>
<path d="M2166 1989 c-87 -20 -146 -97 -146 -189 0 -65 18 -108 63 -147 120
-105 305 -34 323 123 16 135 -107 244 -240 213z"/>
<path d="M3658 1968 c-3 -119 -6 -143 -18 -144 -39 -3 -41 -5 -38 -36 2 -28 8
-34 31 -36 l27 -3 0 -140 0 -139 320 0 320 0 0 139 0 140 28 3 c24 3 27 7 27
38 0 31 -3 35 -25 35 l-25 0 -3 143 -3 142 -319 0 -319 0 -3 -142z m572 -178
l0 -250 -250 0 -250 0 0 250 0 250 250 0 250 0 0 -250z"/>
<path d="M3932 1990 c-163 -38 -206 -252 -71 -350 138 -99 323 9 307 180 -11
115 -124 197 -236 170z"/>
<path d="M5418 1968 c-2 -106 -6 -143 -15 -144 -7 -1 -20 -2 -29 -3 -11 -1
-14 -10 -12 -33 2 -28 8 -34 31 -36 l27 -3 0 -140 0 -139 320 0 320 0 0 140 0
140 30 0 c28 0 30 2 30 39 0 37 -2 40 -27 38 l-28 -2 -3 143 -3 142 -319 0
-319 0 -3 -142z m572 -178 l0 -250 -250 0 -250 0 0 250 0 250 250 0 250 0 0
-250z"/>
<path d="M5715 1995 c-5 -2 -22 -6 -37 -9 -63 -14 -137 -112 -138 -180 -1
-112 94 -207 206 -206 64 1 150 62 173 123 6 16 11 51 11 78 0 93 -59 167
-150 188 -48 11 -49 11 -65 6z"/>
<path d="M7180 1964 c0 -95 -3 -143 -10 -139 -6 3 -19 3 -31 0 -16 -5 -19 -14
-17 -38 2 -27 8 -33 31 -35 l27 -3 0 -140 0 -139 325 0 325 0 0 140 0 140 25
0 c22 0 25 4 25 39 0 35 -2 38 -25 33 l-25 -4 0 146 0 146 -325 0 -325 0 0
-146z m572 -174 l3 -250 -252 0 -253 0 0 250 0 250 250 0 249 0 3 -250z"/>
<path d="M7457 1990 c-44 -8 -104 -54 -131 -100 -24 -41 -26 -132 -4 -175 34
-63 113 -115 176 -115 127 0 225 127 192 249 -26 98 -129 160 -233 141z"/>
<path d="M2610 3295 l0 -145 -25 0 c-22 0 -25 -4 -25 -35 0 -31 3 -35 25 -35
l25 0 0 -140 0 -140 325 0 325 0 0 139 0 140 28 3 c22 2 28 8 30 36 3 30 1 32
-27 32 l-31 0 0 145 0 145 -325 0 -325 0 0 -145z m580 -175 l0 -250 -252 2
-253 3 -3 235 c-1 129 0 240 2 247 4 10 62 13 256 13 l250 0 0 -250z"/>
<path d="M2842 3304 c-72 -37 -121 -127 -108 -202 10 -62 51 -118 108 -146 61
-31 108 -33 163 -7 81 38 119 96 119 182 -1 66 -26 114 -81 156 -46 35 -149
43 -201 17z"/>
<path d="M4370 3295 l0 -145 -25 0 c-22 0 -25 -4 -25 -35 0 -31 3 -35 25 -35
l25 0 0 -140 0 -140 325 0 325 0 0 140 0 140 30 0 c28 0 30 3 30 34 0 30 -3
35 -27 38 l-28 3 -3 143 -3 142 -324 0 -325 0 0 -145z m580 -175 l0 -250 -250
0 -250 0 0 250 0 250 250 0 250 0 0 -250z"/>
<path d="M4605 3303 c-70 -36 -105 -95 -105 -172 0 -87 37 -146 115 -182 147
-68 313 76 266 232 -15 49 -65 108 -108 125 -43 19 -131 17 -168 -3z"/>
<path d="M6138 3298 l-3 -143 -27 -3 c-25 -3 -28 -8 -28 -38 0 -31 2 -34 30
-34 l30 0 0 -140 0 -140 320 0 320 0 0 140 0 140 30 0 c28 0 30 3 30 34 0 30
-3 35 -27 38 l-28 3 -3 143 -3 142 -319 0 -319 0 -3 -142z m572 -178 l0 -250
-250 0 -250 0 0 250 0 250 250 0 250 0 0 -250z"/>
<path d="M6362 3299 c-140 -70 -132 -284 13 -350 128 -59 275 36 275 177 0
149 -152 240 -288 173z"/>
<path d="M600 665 l0 -145 -30 0 c-28 0 -30 -3 -30 -35 0 -32 2 -35 30 -35
l30 0 0 -145 0 -145 320 0 320 0 0 145 0 145 30 0 c28 0 30 3 30 34 0 30 -3
35 -27 38 l-28 3 -3 143 -3 142 -319 0 -320 0 0 -145z m570 -180 l0 -255 -250
0 -250 0 0 248 c0 137 3 252 7 255 3 4 116 7 250 7 l243 0 0 -255z"/>
<path d="M835 671 c-123 -56 -153 -210 -61 -310 110 -119 316 -55 333 103 8
66 -4 112 -40 153 -61 69 -153 91 -232 54z"/>
<path d="M2360 666 l0 -145 -27 -3 c-23 -2 -29 -8 -31 -35 -3 -31 -1 -33 27
-33 l31 0 0 -145 0 -145 325 0 325 0 0 145 0 145 25 0 c22 0 25 4 25 35 0 31
-3 35 -25 35 l-24 0 -3 143 -3 142 -322 3 -323 2 0 -144z m570 -181 l0 -255
-247 2 -248 3 -3 240 c-1 132 0 245 2 252 4 10 62 13 251 13 l245 0 0 -255z"/>
<path d="M2591 669 c-112 -57 -144 -204 -64 -299 79 -94 234 -93 307 3 47 62
52 155 10 225 -48 83 -165 115 -253 71z"/>
<path d="M4127 803 c-4 -3 -7 -69 -7 -145 l0 -138 -25 0 c-22 0 -25 -4 -25
-35 0 -31 3 -35 25 -35 l25 0 0 -145 0 -145 325 0 325 0 0 145 0 145 31 0 c28
0 30 2 27 33 -2 26 -8 33 -30 35 l-27 3 -3 142 -3 142 -316 3 c-173 1 -318 -1
-322 -5z m568 -318 l0 -250 -250 0 -250 0 -3 240 c-1 132 0 245 3 252 3 11 58
13 252 11 l248 -3 0 -250z"/>
<path d="M4370 677 c-57 -31 -72 -44 -92 -75 -84 -135 6 -302 162 -302 194 0
270 243 112 354 -49 35 -140 46 -182 23z"/>
<path d="M5887 803 c-4 -3 -7 -69 -7 -145 l0 -138 -25 0 c-22 0 -25 -4 -25
-35 0 -31 3 -35 25 -35 l24 0 3 -142 3 -143 323 -3 322 -2 0 145 0 145 30 0
c28 0 30 3 30 35 0 32 -2 35 -30 35 l-30 0 0 145 0 145 -318 0 c-175 0 -322
-3 -325 -7z m568 -318 l0 -250 -247 -3 -248 -2 0 255 0 255 248 -2 247 -3 0
-250z"/>
<path d="M6120 668 c-68 -35 -103 -86 -108 -158 -10 -139 100 -232 243 -206
73 14 145 107 145 188 -1 146 -152 241 -280 176z"/>
<path d="M7650 665 l0 -145 -30 0 c-28 0 -30 -3 -30 -35 0 -32 2 -35 30 -35
l30 0 0 -145 0 -145 320 0 320 0 0 145 0 145 30 0 c28 0 30 3 30 35 0 32 -2
35 -30 35 l-30 0 0 145 0 145 -320 0 -320 0 0 -145z m568 -182 l2 -253 -250 0
-250 0 0 255 0 255 248 -2 247 -3 3 -252z"/>
<path d="M7885 671 c-132 -61 -154 -230 -42 -328 89 -78 244 -47 296 59 37 77
26 165 -27 222 -59 63 -152 82 -227 47z"/>
</g>
</svg>
