<?xml version="1.0" standalone="no"?>
<!DOCTYPE svg PUBLIC "-//W3C//DTD SVG 20010904//EN"
 "http://www.w3.org/TR/2001/REC-SVG-20010904/DTD/svg10.dtd">
<svg version="1.0" xmlns="http://www.w3.org/2000/svg"
 width="130.000000pt" height="80.000000pt" viewBox="0 0 130.000000 80.000000"
 preserveAspectRatio="xMidYMid meet">

<g transform="translate(0.000000,80.000000) scale(0.100000,-0.100000)"
fill="#000000" stroke="none">
<path d="M590 738 c-151 -21 -277 -43 -280 -47 -3 -4 -16 -14 -28 -20 -22 -12
-24 -18 -21 -79 1 -49 -3 -78 -17 -107 -30 -64 -27 -194 7 -266 60 -127 154
-190 295 -197 105 -6 192 20 290 84 37 24 71 41 75 38 5 -3 8 0 7 8 -2 7 2 12
7 11 6 -1 10 11 11 27 1 24 -1 26 -12 15 -35 -35 -162 -110 -222 -131 -233
-82 -453 60 -454 292 0 51 5 72 32 123 33 61 35 86 5 61 -13 -11 -15 -6 -15
43 0 54 11 75 42 81 7 2 21 6 31 11 10 4 21 5 24 1 4 -3 -1 -6 -10 -6 -9 0
-17 -4 -17 -9 0 -5 -13 -11 -30 -14 -27 -6 -30 -10 -30 -47 0 -33 3 -40 19
-40 32 0 34 -17 6 -57 -30 -45 -31 -53 -6 -46 29 7 34 -12 11 -49 -26 -43 -25
-58 3 -58 13 0 27 -4 32 -9 10 -9 591 69 613 83 9 5 12 52 12 161 0 148 -1
154 -22 169 -30 21 -39 20 -358 -26z m335 26 c-17 -6 -508 -74 -530 -73 -24 2
480 77 515 77 14 0 21 -1 15 -4z m25 -29 c0 -8 -4 -15 -10 -15 -5 0 -10 7 -10
15 0 8 5 15 10 15 6 0 10 -7 10 -15z m-33 -39 c18 -20 33 -41 33 -48 0 -7 -9
2 -20 20 -25 40 -36 42 -15 2 19 -36 19 -55 0 -111 -18 -51 -78 -119 -106
-119 -10 0 -28 -5 -39 -12 -16 -10 -24 -9 -47 8 -43 31 -65 81 -60 136 12 140
169 217 254 124z m-227 4 c0 -5 -4 -10 -10 -10 -5 0 -10 5 -10 10 0 6 5 10 10
10 6 0 10 -4 10 -10z m-60 -10 c0 -5 -4 -10 -10 -10 -5 0 -10 5 -10 10 0 6 5
10 10 10 6 0 10 -4 10 -10z m-46 -21 c37 -29 56 -71 55 -121 l-2 -43 -6 50
c-7 49 -28 101 -38 92 -2 -3 1 -15 7 -27 6 -11 9 -26 6 -33 -2 -7 -5 -4 -5 6
-1 9 -4 17 -8 17 -15 0 -53 -45 -53 -63 0 -16 5 -18 27 -12 15 3 31 12 35 18
16 24 7 -18 -11 -58 -25 -54 -72 -96 -118 -106 -37 -8 -37 -8 9 -5 56 4 101
34 128 84 10 20 19 32 20 26 0 -17 -42 -75 -72 -97 -14 -11 -49 -22 -76 -25
-44 -4 -52 -1 -85 28 -110 96 -33 290 114 290 32 0 55 -7 73 -21z m-218 -26
c-10 -10 -19 5 -10 18 6 11 8 11 12 0 2 -7 1 -15 -2 -18z m585 -95 c-20 -65
-89 -129 -138 -128 -10 1 -1 7 20 14 21 8 48 22 59 33 28 24 57 90 59 133 1
27 3 30 6 10 3 -13 0 -41 -6 -62z m-1 -93 c0 -8 -4 -15 -10 -15 -5 0 -10 7
-10 15 0 8 5 15 10 15 6 0 10 -7 10 -15z m-260 -34 c0 -6 -4 -13 -10 -16 -5
-3 -10 1 -10 9 0 9 5 16 10 16 6 0 10 -4 10 -9z m-60 -11 c0 -5 -4 -10 -10
-10 -5 0 -10 5 -10 10 0 6 5 10 10 10 6 0 10 -4 10 -10z m-264 -47 c-10 -10
-19 5 -10 18 6 11 8 11 12 0 2 -7 1 -15 -2 -18z"/>
<path d="M763 710 c-22 -9 -32 -30 -15 -30 5 0 15 -11 22 -25 22 -41 42 -32
38 17 -3 45 -11 51 -45 38z"/>
<path d="M870 625 c-27 -29 -17 -49 21 -43 19 2 24 9 24 32 0 38 -16 42 -45
11z"/>
<path d="M755 611 c-6 -11 9 -23 19 -14 9 9 7 23 -3 23 -6 0 -12 -4 -16 -9z"/>
<path d="M793 605 c-32 -22 -35 -51 -7 -64 20 -9 28 -7 44 9 24 24 25 34 4 54
-19 19 -15 19 -41 1z"/>
<path d="M688 579 c-19 -10 -25 -54 -9 -63 11 -7 71 47 71 63 0 14 -39 14 -62
0z"/>
<path d="M780 490 c0 -35 3 -40 24 -40 40 0 49 22 20 53 -34 37 -44 34 -44
-13z"/>
<path d="M434 656 c-6 -15 33 -76 48 -76 4 0 8 20 8 45 0 41 -2 45 -25 45 -14
0 -28 -6 -31 -14z"/>
<path d="M435 569 c-10 -15 1 -23 20 -15 9 3 13 10 10 16 -8 13 -22 13 -30 -1z"/>
<path d="M464 545 c-13 -20 -14 -28 -4 -40 29 -34 77 -5 66 40 -8 33 -40 33
-62 0z m36 -15 c0 -5 -4 -10 -10 -10 -5 0 -10 5 -10 10 0 6 5 10 10 10 6 0 10
-4 10 -10z"/>
<path d="M362 528 c-14 -14 -15 -28 -3 -47 7 -11 16 -8 45 15 20 16 36 32 36
37 0 12 -65 8 -78 -5z"/>
<path d="M464 465 c-9 -22 4 -65 19 -65 7 0 21 6 32 14 18 13 18 14 -1 39 -21
30 -42 34 -50 12z"/>
<path d="M274 433 c-39 -61 -9 -193 63 -273 121 -135 346 -127 531 19 57 45
91 92 52 71 -28 -15 -36 -7 -15 14 18 17 9 21 -14 7 -8 -5 -11 -16 -8 -25 12
-30 -119 -115 -218 -141 -76 -19 -124 -19 -199 2 -50 14 -71 27 -118 73 -81
81 -96 142 -54 223 22 44 23 57 5 57 -3 0 -15 -12 -25 -27z"/>
<path d="M1063 357 c4 -10 3 -16 -2 -12 -5 3 -12 1 -16 -5 -3 -5 3 -10 14 -10
27 0 34 15 14 31 -15 12 -16 12 -10 -4z"/>
<path d="M894 329 c-3 -6 -1 -16 6 -22 10 -9 12 -8 7 5 -4 13 -2 15 10 11 11
-4 14 -2 9 5 -9 15 -23 15 -32 1z"/>
<path d="M948 313 c-27 -4 -35 -13 -22 -26 3 -3 14 -2 23 4 9 5 39 13 66 18
l50 9 -45 -1 c-25 0 -57 -2 -72 -4z"/>
<path d="M1013 297 l-63 -10 0 -73 0 -73 38 6 c98 14 97 13 100 83 2 34 -1 66
-5 69 -4 4 -36 3 -70 -2z m62 -64 c-1 -29 -22 -39 -86 -42 -22 -1 -26 3 -25
26 1 29 22 39 87 42 22 1 26 -3 24 -26z"/>
</g>
</svg>
