<?xml version="1.0" standalone="no"?>
<!DOCTYPE svg PUBLIC "-//W3C//DTD SVG 20010904//EN"
 "http://www.w3.org/TR/2001/REC-SVG-20010904/DTD/svg10.dtd">
<svg version="1.0" xmlns="http://www.w3.org/2000/svg"
 width="70.000000pt" height="123.000000pt" viewBox="0 0 70.000000 123.000000"
 preserveAspectRatio="xMidYMid meet">

<g transform="translate(0.000000,123.000000) scale(0.100000,-0.100000)"
fill="#000000" stroke="none">
<path d="M398 1193 l-58 -4 0 -68 0 -67 -67 1 -68 0 -3 68 -3 67 -67 0 c-38 0
-74 -6 -84 -13 -15 -12 -16 -61 -15 -560 2 -492 4 -548 18 -563 15 -14 55 -17
316 -20 l300 -4 0 568 c1 549 0 569 -18 580 -21 14 -162 22 -251 15z m-323
-83 c0 -35 -4 -45 -17 -48 -15 -3 -18 4 -18 48 0 44 3 51 18 48 13 -3 17 -13
17 -48z m585 -1 c0 -43 -3 -50 -17 -47 -12 2 -19 14 -21 37 -4 41 3 61 23 61
11 0 15 -12 15 -51z m-280 31 c0 -5 -4 -10 -10 -10 -5 0 -10 5 -10 10 0 6 5
10 10 10 6 0 10 -4 10 -10z m-70 -146 c0 -8 7 -14 15 -14 8 0 15 -7 15 -15 0
-8 7 -15 15 -15 10 0 15 -11 15 -35 0 -24 -5 -35 -15 -35 -8 0 -15 -7 -15 -15
0 -8 -7 -15 -15 -15 -8 0 -15 -7 -15 -15 0 -8 -7 -15 -15 -16 -54 -4 -60 -3
-57 15 2 12 -2 16 -15 14 -12 -2 -17 2 -15 15 2 11 -4 17 -16 17 -13 0 -18 6
-16 23 1 12 3 28 3 35 1 6 8 12 17 12 10 0 14 6 10 15 -4 10 1 15 15 15 14 0
19 5 16 14 -4 10 2 16 16 18 33 5 57 -3 57 -18z m-235 -44 c0 -35 -4 -45 -17
-48 -15 -3 -18 4 -18 48 0 44 3 51 18 48 13 -3 17 -13 17 -48z m0 -160 c0 -35
-4 -45 -17 -48 -15 -3 -18 4 -18 48 0 44 3 51 18 48 13 -3 17 -13 17 -48z
m122 14 c-9 -9 -28 6 -21 18 4 6 10 6 17 -1 6 -6 8 -13 4 -17z m165 -39 c17
-38 -4 -55 -66 -55 -53 0 -76 12 -76 40 0 28 23 40 77 40 47 0 55 -3 65 -25z
m298 -26 c0 -43 -3 -50 -17 -47 -12 2 -19 14 -21 37 -4 41 3 61 23 61 11 0 15
-12 15 -51z m-463 5 c-9 -9 -28 6 -21 18 4 6 10 6 17 -1 6 -6 8 -13 4 -17z
m293 -259 c28 -27 30 -33 28 -94 l-2 -66 -3 61 c-3 52 -8 65 -33 89 l-30 29 2
125 2 126 3 -121 c4 -119 4 -121 33 -149z m30 20 c29 -27 30 -32 28 -104 l-2
-76 -3 71 c-3 63 -7 74 -33 99 l-30 29 2 115 2 116 3 -111 c4 -108 4 -112 33
-139z m-326 184 c-3 -5 -10 -7 -15 -3 -5 3 -7 10 -3 15 3 5 10 7 15 3 5 -3 7
-10 3 -15z m56 -30 c0 -10 -4 -19 -10 -19 -5 0 -10 12 -10 26 0 14 4 23 10 19
6 -3 10 -15 10 -26z m60 0 c0 -10 -4 -19 -10 -19 -5 0 -10 12 -10 26 0 14 4
23 10 19 6 -3 10 -15 10 -26z m50 6 c0 -14 -4 -25 -10 -25 -11 0 -14 33 -3 43
11 11 13 8 13 -18z m-285 -35 c0 -35 -4 -45 -17 -48 -15 -3 -18 4 -18 48 0 44
3 51 18 48 13 -3 17 -13 17 -48z m125 12 c0 -13 -12 -22 -22 -16 -10 6 -1 24
13 24 5 0 9 -4 9 -8z m134 -58 c10 -25 7 -74 -4 -74 -5 0 -10 13 -10 29 0 17
-4 33 -10 36 -6 4 -10 -8 -10 -29 0 -20 -4 -36 -10 -36 -5 0 -10 16 -10 36 0
45 -24 42 -28 -4 -4 -40 -22 -42 -22 -3 0 52 9 61 55 61 30 0 45 -5 49 -16z
m-134 -2 c0 -13 -12 -22 -22 -16 -10 6 -1 24 13 24 5 0 9 -4 9 -8z m180 -22
c0 -5 -4 -10 -10 -10 -5 0 -10 5 -10 10 0 6 5 10 10 10 6 0 10 -4 10 -10z
m-305 -90 c0 -35 -4 -45 -17 -48 -15 -3 -18 4 -18 48 0 44 3 51 18 48 13 -3
17 -13 17 -48z m585 -101 c0 -43 -3 -50 -17 -47 -12 2 -19 14 -21 37 -4 41 3
61 23 61 11 0 15 -12 15 -51z m-240 -9 l0 -40 -140 0 -140 0 0 40 0 40 140 0
140 0 0 -40z m-55 -180 c3 -5 41 -11 83 -12 l77 -2 -75 -3 c-41 -2 -84 1 -95
6 -11 6 -42 12 -70 14 -48 3 -47 3 12 5 34 1 65 -2 68 -8z m-10 -30 c3 -5 27
-11 53 -12 l47 -1 -44 -4 c-25 -3 -54 0 -65 6 -12 6 -43 12 -71 14 -48 3 -47
3 12 5 34 1 65 -2 68 -8z m-67 -92 c3 -15 -4 -18 -47 -18 -36 0 -51 4 -51 13
0 23 12 28 55 25 29 -2 41 -8 43 -20z m370 0 c3 -15 -4 -18 -47 -18 -36 0 -51
4 -51 13 0 23 12 28 55 25 29 -2 41 -8 43 -20z"/>
<path d="M237 952 l-37 -38 38 -37 38 -37 32 33 c18 18 32 37 32 43 0 6 -15
24 -33 42 l-33 32 -37 -38z m57 -18 c19 -19 4 -57 -21 -52 -26 5 -39 34 -24
52 17 20 26 20 45 0z"/>
<path d="M244 759 c-3 -6 -1 -16 5 -22 8 -8 11 -5 11 11 0 24 -5 28 -16 11z"/>
<path d="M285 760 c-4 -6 -3 -16 3 -22 6 -6 12 -6 17 2 4 6 3 16 -3 22 -6 6
-12 6 -17 -2z"/>
<path d="M330 750 c0 -19 3 -21 12 -12 9 9 9 15 0 24 -9 9 -12 7 -12 -12z"/>
<path d="M170 360 c0 -27 3 -30 30 -30 27 0 30 3 30 30 0 27 -3 30 -30 30 -27
0 -30 -3 -30 -30z m50 0 c0 -13 -7 -20 -20 -20 -13 0 -20 7 -20 20 0 13 7 20
20 20 13 0 20 -7 20 -20z"/>
<path d="M250 360 c0 -27 3 -30 30 -30 27 0 30 3 30 30 0 27 -3 30 -30 30 -27
0 -30 -3 -30 -30z m50 0 c0 -13 -7 -20 -20 -20 -13 0 -20 7 -20 20 0 13 7 20
20 20 13 0 20 -7 20 -20z"/>
<path d="M340 360 c0 -27 3 -30 30 -30 27 0 30 3 30 30 0 27 -3 30 -30 30 -27
0 -30 -3 -30 -30z m50 0 c0 -13 -7 -20 -20 -20 -13 0 -20 7 -20 20 0 13 7 20
20 20 13 0 20 -7 20 -20z"/>
<path d="M222 1139 l3 -52 48 -1 47 -1 0 53 c0 62 -18 70 -22 10 -2 -35 -7
-44 -24 -46 -19 -3 -23 3 -28 42 -10 63 -28 59 -24 -5z"/>
<path d="M261 1178 c0 -7 4 -22 9 -33 7 -17 9 -15 9 13 1 17 -3 32 -9 32 -5 0
-10 -6 -9 -12z"/>
</g>
</svg>
